<?xml version="1.0" encoding="UTF-8"?>
<!DOCTYPE svg PUBLIC "-//W3C//DTD SVG 1.1//EN" "http://www.w3.org/Graphics/SVG/1.1/DTD/svg11.dtd">
<!-- Creator: CorelDRAW 2018 (64-Bit) -->
<svg xmlns="http://www.w3.org/2000/svg" xml:space="preserve" width="250px" height="250px" version="1.1" style="shape-rendering:geometricPrecision; text-rendering:geometricPrecision; image-rendering:optimizeQuality; fill-rule:evenodd; clip-rule:evenodd"
viewBox="0 0 5483 5483"
 xmlns:xlink="http://www.w3.org/1999/xlink">
 <defs>
  <style type="text/css">
   <![CDATA[
    .fil0 {fill:none}
    .fil1 {fill:white}
    .fil2 {fill:#0053E3;fill-rule:nonzero}
   ]]>
  </style>
 </defs>
 <g id="Слой_x0020_1">
  <metadata id="CorelCorpID_0Corel-Layer"/>
  <rect class="fil0" width="5483" height="5483"/>
  <g id="_2536924719888">
   <path class="fil1" d="M1461 1756c-8,-63 -12,-127 -18,-193 -15,-177 -5,-356 52,-526 51,-151 144,-287 274,-381 28,-25 58,-46 90,-65 40,-23 81,-39 120,-56 32,-49 63,-87 122,-126 304,-207 723,-165 1054,-52 319,108 720,343 833,681 57,170 67,348 52,525 -6,66 -10,130 -18,193 29,35 52,77 68,131l3 8 1 9c30,124 5,198 -22,314 -23,98 -63,187 -89,282 -19,72 -44,104 -77,163 -20,59 -28,123 -48,186 -46,194 -101,270 -195,389 129,63 270,113 397,161 333,125 704,264 934,549 287,354 321,807 289,1244l-21 291 -5041 0 -21 -291c-32,-437 2,-890 288,-1244 231,-285 601,-424 934,-549 128,-48 269,-98 397,-161 -94,-119 -148,-195 -194,-389 -20,-63 -28,-127 -48,-186 -34,-59 -58,-91 -77,-163 -26,-95 -66,-184 -89,-282 -27,-116 -52,-190 -23,-314l2 -9 3 -8c16,-54 38,-96 68,-131z"/>
   <path class="fil2" d="M2275 669c395,-273 1294,103 1416,468 43,128 48,266 37,400 -9,93 -11,187 -35,278 -4,27 -17,58 1,82 32,26 83,35 96,79 13,58 -10,115 -23,171 -22,92 -61,180 -86,271 -13,49 -52,85 -68,133 -24,69 -31,144 -57,213 -45,201 -106,236 -215,377 -35,67 -19,144 -18,216 -1,29 12,58 38,72 422,265 1098,355 1390,716 217,267 248,630 220,1025l-4459 0c-29,-395 3,-758 220,-1025 292,-361 968,-451 1390,-716 26,-14 39,-43 38,-72 1,-72 17,-149 -18,-216 -110,-141 -170,-176 -216,-377 -25,-69 -32,-144 -57,-213 -16,-48 -54,-84 -67,-133 -25,-91 -64,-179 -86,-271 -13,-56 -37,-113 -23,-171 13,-44 64,-53 95,-79 19,-24 6,-55 1,-82 -23,-91 -25,-185 -34,-278 -11,-134 -6,-272 37,-400 31,-94 89,-180 172,-236 64,-60 151,-79 226,-119 34,-33 44,-86 85,-113z"/>
  </g>
 </g>
</svg>
